# AST/ASF file generated using VICON BodyLanguage
# -----------------------------------------------
:version 1.10
:name VICON
:units
  mass 1.0
  length 0.45
  angle deg
:documentation
   .ast/.asf automatically generated from VICON data using
   VICON BodyBuilder and BodyLanguage model FoxedUp or BRILLIANT.MOD
:root
   order TX TY TZ RX RY RZ
   axis XYZ
   position 0 0 0  
   orientation 0 0 0 
:bonedata
  begin
     id 1 
     name lhipjoint
     direction 0.660183 -0.676772 0.325788 
     length 2.75133 
     axis 0 0 0  XYZ
  end
  begin
     id 2 
     name lfemur
     direction 0.34202 -0.939693 0  
     length 7.70317  
     axis 0 0 20  XYZ
    dof rx ry rz
    limits (-160.0 20.0)
           (-70.0 70.0)
           (-60.0 70.0)
  end
  begin
     id 3 
     name ltibia
     direction 0.342105 -0.939662 0   
     length 7.18701   
     axis 0 0 20   XYZ
    dof rx
    limits (-10.0 170.0)
  end
  begin
     id 4 
     name lfoot
     direction 0.14163 -0.389126 0.910232   
     length 2.41719   
     axis -90 7.62852e-016 20   XYZ
    dof rx rz
    limits (-45.0 90.0)
           (-70.0 20.0)
  end
  begin
     id 5 
     name ltoes
     direction 1.53533e-011 -4.21926e-011 1   
     length 1.18611   
     axis -90 7.62852e-016 20   XYZ
    dof rx
    limits (-90.0 20.0)
  end
  begin
     id 6 
     name rhipjoint
     direction -0.6658 -0.67229 0.323631   
     length 2.76968  
     axis 0 0 0  XYZ 
  end
  begin
     id 7 
     name rfemur
     direction -0.34202 -0.939693 0   
     length 7.92547   
     axis 0 0 -20   XYZ
    dof rx ry rz
    limits (-160.0 20.0)
           (-70.0 70.0)
           (-70.0 60.0)
  end
  begin
     id 8 
     name rtibia
     direction -0.342022 -0.939692 0   
     length 7.22641   
     axis 0 0 -20   XYZ
    dof rx
    limits (-10.0 170.0)
 end
 begin
     id 9 
     name rfoot
     direction -0.105675 -0.29034 0.951071   
     length 2.48149  
     axis -90 -7.62852e-016 -20   XYZ
    dof rx rz
    limits (-45.0 90.0)
           (-20.0 70.0)
  end
  begin
     id 10 
     name rtoes
     direction -1.5349e-011 -4.21859e-011 1   
     length 1.23343   
     axis -90 -7.62852e-016 -20   XYZ
    dof rx
    limits (-90.0 20.0)
  end
  begin
     id 11 
     name lowerback
     direction 0.0104173 0.993624 -0.112266   
     length 2.00527   
     axis 0 0 0   XYZ
    dof rx ry rz
    limits (-20.0 45.0)
           (-30.0 30.0)
           (-30.0 30.0)
  end
  begin
     id 12 
     name upperback
     direction 0.00733149 0.999856 -0.0152913   
     length 2.01385   
     axis 0 0 0   XYZ
    dof rx ry rz
    limits (-20.0 45.0)
           (-30.0 30.0)
           (-30.0 30.0)
  end
  begin
     id 13 
     name thorax
     direction 0.0026304 0.999318 0.036841   
     length 2.03734   
     axis 0 0 0   XYZ
    dof rx ry rz
    limits (-20.0 45.0)
           (-30.0 30.0)
           (-30.0 30.0)
  end
  begin
     id 14 
     name lowerneck
     direction 0.0293154 0.998757 0.0403082   
     length 1.65303   
     axis 0 0 0   XYZ
    dof rx ry rz
    limits (-20.0 45.0)
           (-30.0 30.0)
           (-30.0 30.0)
  end
  begin
     id 15 
     name upperneck
     direction -0.0376619 0.998184 -0.0470083   
     length 1.60926   
     axis 0 0 0   XYZ
    dof rx ry rz
    limits (-20.0 45.0)
           (-30.0 30.0)
           (-30.0 30.0)
  end
  begin
     id 16
     name head
     direction -0.0170133 0.999635 -0.0209778  
     length 1.73625  
     axis 0 0 0   XYZ
    dof rx ry rz
    limits (-20.0 45.0)
           (-30.0 30.0)
           (-30.0 30.0)
  end
  begin
     id 17 
     name lclavicle
     direction 0.919857 0.39181 -0.0186333  
     length 3.75313  
     axis 0 0 0   XYZ
    dof ry rz
    limits (-20.0 10.0)
           (0.0 20.0)
  end
  begin
     id 18 
     name lhumerus
     direction 1 -4.48988e-011 1.44029e-027   
     length 5.49313   
     axis 180 -30 -90   XYZ
    dof rx ry rz
    limits (-60.0 90.0)
           (-90.0 90.0)
           (-90.0 90.0)
  end
  begin
     id 19
     name lradius
     direction 1 -4.48924e-011 7.46281e-027   
     length 3.29037   
     axis 180 -30 -90   XYZ
    dof rx
    limits (-10.0 170.0)
  end
  begin
     id 20
     name lwrist
     direction 1 -4.48955e-011 2.19879e-026   
     length 1.64519   
     axis -1.34358e-014 90 90   XYZ
    dof ry
    limits (-180.0 0.0)
 end
  begin
     id 21 
     name lhand
     direction 1 -4.48978e-011 4.39747e-026   
     length 0.729656   
     axis -2.80598e-014 90 90   XYZ
    dof rx rz
    limits (-90.0 90.0)
           (-45.0 45.0)
  end
  begin
     id 22 
     name lfingers
     direction 1 -4.49071e-011 8.79411e-026   
     length 0.588268   
     axis -5.61193e-014 90 90   XYZ
    dof rx
    limits (0.0 90.0)
  end
  begin
     id 23
     name lthumb
     direction 0.707107 -6.34817e-011 0.707107   
     length 0.844638   
     axis -90 45 -9.86923e-015   XYZ
    dof rx rz
    limits (-45.0 45.0)
           (-45.0 45.0)
  end
  begin
     id 24 
     name rclavicle
     direction -0.919898 0.388279 0.0550233   
     length 3.7171  
     axis 0 0 0   XYZ 
    dof ry rz
    limits (-10.0 20.0)
           (-20.0 0.0)
  end
  begin
     id 25 
     name rhumerus
     direction -1 -4.48968e-011 9.98372e-028  
     length 5.23684   
     axis 180 30 90   XYZ
    dof rx ry rz
    limits (-90.0 60.0)
           (-90.0 90.0)
           (-90.0 90.0)
  end
  begin
     id 26 
     name rradius
     direction -1 -4.48956e-011 1.01023e-026   
     length 3.38251   
     axis 180 30 90   XYZ
    dof rx
    limits (-10.0 170.0)
  end
  begin
     id 27 
     name rwrist
     direction -1 -4.4892e-011 2.19886e-026   
     length 1.69126   
     axis -1.34358e-014 -90 -90   XYZ
    dof ry
    limits (-180.0 0.0)
  end
  begin
     id 28
     name rhand
     direction -1 -4.49024e-011 4.39727e-026   
     length 0.691454   
     axis -2.80598e-014 -90 -90   XYZ
    dof rx rz
    limits (-90.0 90.0)
           (-45.0 45.0)
  end
  begin
     id 29
     name rfingers
     direction -1 -4.49097e-011 8.79388e-026   
     length 0.557468   
     axis -5.61193e-014 -90 -90   XYZ
    dof rx
    limits (0.0 90.0)
  end
  begin
     id 30
     name rthumb
     direction -0.707107 -6.34938e-011 0.707107   
     length 0.800416   
     axis -90 -45 9.86923e-015   XYZ
    dof rx rz
    limits (-45.0 45.0)
           (-45.0 45.0)
  end
:hierarchy
  begin
    root lhipjoint rhipjoint lowerback
    lhipjoint lfemur
    lfemur ltibia
    ltibia lfoot
    lfoot ltoes
    rhipjoint rfemur
    rfemur rtibia
    rtibia rfoot
    rfoot rtoes
    lowerback upperback
    upperback thorax
    thorax lowerneck lclavicle rclavicle
    lowerneck upperneck
    upperneck head
    lclavicle lhumerus
    lhumerus lradius
    lradius lwrist
    lwrist lhand lthumb
    lhand lfingers
    rclavicle rhumerus
    rhumerus rradius
    rradius rwrist
    rwrist rhand rthumb
    rhand rfingers
  end

#!OML:ASF H:\BabyWalks\Project 1\Capture day 1\Session 1\baby.ASF
:FULLY-SPECIFIED
:DEGREES
166
root -35.7712 17.3691 -3.70507 -30.4446 80.4748 -37.6379
lowerback 18.4104 0.174257 -9.97909
upperback 7.61057 -1.03533 -1.71378
thorax -1.86664 -0.480573 4.00919
lowerneck -5.08633 2.43224 -7.80629
upperneck -9.05625 4.38372 9.31309
head -2.20631 2.3651 4.06625
rclavicle 4.77083e-015 7.95139e-015
rhumerus -38.3555 24.4567 -88.5936
rradius 43.8314
rwrist -2.75619
rhand -6.16994 -17.7848
rfingers 7.12502
rthumb 19.669 -46.8098
lclavicle 4.77083e-015 7.95139e-015
lhumerus -33.1566 6.59513 74.6215
lradius 52.9236
lwrist 1.81332
lhand -1.13142 11.4084
lfingers 7.12502
lthumb 24.5062 39.8604
rfemur -10.356 6.75287 22.5962
rtibia 47.1377
rfoot -12.021 14.2467
rtoes -16.2895
lfemur -22.2131 -8.37766 -10.6179
ltibia 40.8104
lfoot -30.3249 -17.9911
ltoes 6.44648
167
root -35.6938 17.3793 -3.70864 -29.6206 80.4012 -36.8026
lowerback 18.5815 0.144825 -10.0514
upperback 7.55497 -1.11408 -1.80727
thorax -2.00405 -0.510724 3.96767
lowerneck -4.98371 2.46617 -7.79406
upperneck -9.24188 4.44734 9.4167
head -2.28449 2.39296 4.09303
rclavicle 1.03368e-014 0
rhumerus -38.571 24.3605 -88.6592
rradius 43.9468
rwrist -2.97746
rhand -6.39293 -17.73
rfingers 7.12502
rthumb 19.4546 -46.7768
lclavicle 1.03368e-014 0
lhumerus -33.0371 6.15677 74.5785
lradius 53.0978
lwrist 1.90838
lhand -1.11124 11.6018
lfingers 7.12502
lthumb 24.5256 40.0512
rfemur -11.0711 6.94383 22.2539
rtibia 48.2715
rfoot -11.5017 14.4005
rtoes -15.4286
lfemur -21.6911 -8.34456 -10.8163
ltibia 40.4556
lfoot -30.4086 -17.8819
ltoes 6.56299
168
root -35.6157 17.3885 -3.71088 -28.9183 80.3284 -36.0776
lowerback 18.6776 0.133584 -10.1752
upperback 7.55207 -1.16099 -1.82849
thorax -2.04539 -0.532951 4.0247
lowerneck -4.86303 2.49157 -7.8309
upperneck -9.50424 4.50145 9.46037
head -2.38778 2.41809 4.10914
rclavicle 4.77083e-014 1.27222e-014
rhumerus -38.7121 24.2895 -88.6079
rradius 44.0419
rwrist -3.19771
rhand -6.59854 -17.645
rfingers 7.12502
rthumb 19.2569 -46.7116
lclavicle 4.77083e-014 1.27222e-014
lhumerus -32.8463 5.72294 74.6427
lradius 53.2824
lwrist 1.98124
lhand -1.0533 11.9658
lfingers 7.12502
lthumb 24.5811 40.4076
rfemur -11.7527 7.13574 21.9495
rtibia 49.3237
rfoot -11.2811 14.2913
rtoes -15.1355
lfemur -21.1546 -8.32345 -10.9968
ltibia 40.0987
lfoot -30.4953 -17.7723
ltoes 6.67731
169
root -35.537 17.3974 -3.71194 -28.2806 80.2486 -35.4097
lowerback 18.7813 0.114222 -10.2725
upperback 7.54725 -1.21546 -1.8446
thorax -2.0926 -0.55827 4.07414
lowerneck -4.74087 2.52353 -7.88144
upperneck -9.77828 4.56407 9.48418
head -2.49569 2.44817 4.12121
rclavicle -4.77083e-015 2.06736e-014
rhumerus -38.846 24.2148 -88.5644
rradius 44.1163
rwrist -3.42365
rhand -6.74433 -17.5634
rfingers 7.12502
rthumb 19.1167 -46.6439
lclavicle -4.77083e-015 2.06736e-014
lhumerus -32.6748 5.27242 74.6963
lradius 53.5
lwrist 2.03274
lhand -0.957419 12.3833
lfingers 7.12502
lthumb 24.673 40.8126
rfemur -12.4149 7.32853 21.6773
rtibia 50.2915
rfoot -11.3089 13.9269
rtoes -15.3682
lfemur -20.6058 -8.30965 -11.1627
ltibia 39.7408
lfoot -30.5812 -17.6631
ltoes 6.81851
170
root -35.4575 17.4059 -3.71189 -27.695 80.157 -34.7871
lowerback 18.8078 0.100036 -10.4233
upperback 7.60702 -1.25294 -1.78488
thorax -2.02687 -0.584391 4.2295
lowerneck -4.68377 2.55313 -8.02711
upperneck -10.099 4.62839 9.43932
head -2.60832 2.48589 4.12895
rclavicle 0 -4.77083e-015
rhumerus -38.853 24.2133 -88.3834
rradius 44.1679
rwrist -3.66808
rhand -6.83611 -17.5027
rfingers 7.12502
rthumb 19.0284 -46.5919
lclavicle 0 -4.77083e-015
lhumerus -32.4247 4.91595 74.8486
lradius 53.7237
lwrist 2.02436
lhand -0.860335 12.7821
lfingers 7.12502
lthumb 24.7661 41.1987
rfemur -13.0606 7.53104 21.4365
rtibia 51.1722
rfoot -11.4965 13.3352
rtoes -16.143
lfemur -20.041 -8.30208 -11.3127
ltibia 39.3756
lfoot -30.6756 -17.5356
ltoes 6.91923
171
root -35.3771 17.4145 -3.71078 -27.1266 80.0476 -34.1765
lowerback 18.867 0.062317 -10.5231
upperback 7.65538 -1.31837 -1.73948
thorax -1.98879 -0.621746 4.34721
lowerneck -4.67865 2.59843 -8.1971
upperneck -10.3931 4.71411 9.37659
head -2.7071 2.53743 4.1357
rclavicle 1.59028e-014 7.95139e-015
rhumerus -38.8517 24.2355 -88.2459
rradius 44.1991
rwrist -3.90516
rhand -6.87282 -17.5024
rfingers 7.12502
rthumb 18.9931 -46.5951
lclavicle 1.59028e-014 7.95139e-015
lhumerus -32.2198 4.58937 74.9524
lradius 53.9845
lwrist 1.99856
lhand -0.769083 13.1936
lfingers 7.12502
lthumb 24.8535 41.5982
rfemur -13.6974 7.74756 21.222
rtibia 51.9646
rfoot -11.7582 12.572
rtoes -17.2555
lfemur -19.4531 -8.29824 -11.4494
ltibia 38.9887
lfoot -30.7542 -17.4045
ltoes 7.05346
172
root -35.2955 17.4235 -3.70884 -26.54 79.9112 -33.5445
lowerback 18.9159 0.0166351 -10.6069
upperback 7.71574 -1.38859 -1.6823
thorax -1.93153 -0.662844 4.46915
lowerneck -4.72145 2.65367 -8.39383
upperneck -10.6853 4.81198 9.25906
head -2.79874 2.59914 4.13045
rclavicle 6.36111e-015 1.11319e-014
rhumerus -38.8089 24.2928 -88.0941
rradius 44.1686
rwrist -4.05889
rhand -6.94501 -17.4238
rfingers 7.12502
rthumb 18.9237 -46.5232
lclavicle 6.36111e-015 1.11319e-014
lhumerus -32.0277 4.3218 75.0551
lradius 54.2778
lwrist 1.94894
lhand -0.700655 13.5174
lfingers 7.12502
lthumb 24.9191 41.9129
rfemur -14.3268 7.99046 21.0284
rtibia 52.6417
rfoot -12.0451 11.703
rtoes -18.4976
lfemur -18.8238 -8.29052 -11.5752
ltibia 38.5399
lfoot -30.8049 -17.2606
ltoes 7.15942
173
root -35.2124 17.4346 -3.70629 -25.905 79.7347 -32.863
lowerback 18.9721 -0.0396098 -10.6536
upperback 7.77216 -1.46822 -1.63231
thorax -1.88264 -0.707543 4.56466
lowerneck -4.82977 2.7183 -8.58151
upperneck -10.9408 4.91844 9.08118
head -2.86874 2.66851 4.10592
rclavicle 1.59028e-015 -2.38542e-014
rhumerus -38.7393 24.3651 -87.9528
rradius 44.1215
rwrist -4.22799
rhand -6.93645 -17.401
rfingers 7.12502
rthumb 18.9319 -46.4997
lclavicle 1.59028e-015 -2.38542e-014
lhumerus -31.8753 4.11221 75.1275
lradius 54.6104
lwrist 1.89208
lhand -0.685883 13.744
lfingers 7.12502
lthumb 24.9333 42.1375
rfemur -14.9763 8.28277 20.8502
rtibia 53.2198
rfoot -12.2631 10.8657
rtoes -19.2239
lfemur -18.158 -8.26828 -11.6916
ltibia 38.0508
lfoot -30.8337 -17.109
ltoes 7.2927
174
root -35.1265 17.4543 -3.7033 -25.1833 79.51 -32.0974
lowerback 19.0394 -0.0995528 -10.6607
upperback 7.81186 -1.55044 -1.59982
thorax -1.85983 -0.751059 4.62022
lowerneck -4.9396 2.79962 -8.77063
upperneck -11.191 5.04455 8.87843
head -2.93864 2.74888 4.07334
rclavicle -1.59028e-015 -9.54166e-015
rhumerus -38.6723 24.4405 -87.8453
rradius 44.0423
rwrist -4.36546
rhand -6.90169 -17.371
rfingers 7.12502
rthumb 18.9654 -46.4664
lclavicle -1.59028e-015 -9.54166e-015
lhumerus -31.7825 3.9479 75.1595
lradius 54.986
lwrist 1.84323
lhand -0.714911 13.796
lfingers 7.12502
lthumb 24.9054 42.1934
rfemur -15.6211 8.62738 20.6826
rtibia 53.6663
rfoot -12.4513 10.1306
rtoes -19.8226
lfemur -17.4364 -8.22335 -11.8064
ltibia 37.4968
lfoot -30.839 -16.9426
ltoes 7.41681
175
root -35.0407 17.4673 -3.70011 -24.3704 79.2344 -31.2438
lowerback 19.1221 -0.159339 -10.6252
upperback 7.82488 -1.63179 -1.59317
thorax -1.87748 -0.790501 4.62489
lowerneck -5.05831 2.8895 -8.90527
upperneck -11.4061 5.17397 8.63097
head -2.99498 2.83025 4.01783
rclavicle -4.6118e-014 -5.56597e-014
rhumerus -38.6436 24.5085 -87.7899
rradius 43.9613
rwrist -4.47197
rhand -6.83677 -17.3522
rfingers 7.12502
rthumb 19.0278 -46.4415
lclavicle -4.6118e-014 -5.56597e-014
lhumerus -31.7653 3.81299 75.1427
lradius 55.4081
lwrist 1.82881
lhand -0.802513 13.7935
lfingers 7.12502
lthumb 24.8215 42.2025
rfemur -16.3023 9.02676 20.5168
rtibia 54.0217
rfoot -12.6508 9.569
rtoes -20.3285
lfemur -16.6976 -8.15128 -11.9184
ltibia 36.9079
lfoot -30.8287 -16.7479
ltoes 7.46544
